<svg width="92" height="126" viewBox="0 0 92 126" fill="none" xmlns="http://www.w3.org/2000/svg">
<path d="M1 66.198L45.9095 51L91 66.198V105.537C91 107.658 89.6606 109.549 87.6589 110.253L45.7284 125L4.32324 110.261C2.33073 109.552 1 107.666 1 105.551V66.198Z" fill="#F1F5FA"/>
<path d="M1 66.198L45.9095 51M1 66.198L45.7284 82.1198M1 66.198V105.551C1 107.666 2.33073 109.552 4.32324 110.261L45.7284 125M45.9095 51L91 66.198M45.9095 51V70.5M91 66.198L45.7284 82.1198M91 66.198V105.537C91 107.658 89.6606 109.549 87.6589 110.253L45.7284 125M45.7284 82.1198V125" stroke="#BCC4D6" stroke-linecap="round" stroke-linejoin="round"/>
<path d="M51 103.5L63.2205 99.4265C63.9938 99.1687 64.5235 98.4663 64.6492 97.6609C65.0854 94.8662 66.4349 91 69.5 91C71.932 91 73.436 92.6734 74.2587 94.3244C74.8016 95.4138 76.033 96.1557 77.1877 95.7708L85.5 93" stroke="#BCC4D6" stroke-linecap="round"/>
<path d="M6 103.604V78.7532C6 77.3943 7.32603 76.4311 8.61832 76.8512L39.6183 86.9288C40.4422 87.1967 41 87.9645 41 88.8308V114.203C41 115.574 39.6508 116.539 38.353 116.095L7.35297 105.496C6.54376 105.219 6 104.459 6 103.604Z" stroke="#BCC4D6" stroke-linecap="round"/>
<path d="M86 103.604V78.7532C86 77.3943 84.674 76.4311 83.3817 76.8512L52.3817 86.9288C51.5578 87.1967 51 87.9645 51 88.8308L51 114.203C51 115.574 52.3492 116.539 53.647 116.095L84.647 105.496C85.4562 105.219 86 104.459 86 103.604Z" stroke="#BCC4D6" stroke-linecap="round"/>
<path d="M43.7269 41C43.5461 41 43.3978 40.9669 43.2821 40.9007C43.1736 40.8345 43.0976 40.7452 43.0542 40.6326C43.0181 40.5135 43.0181 40.3844 43.0542 40.2454C43.0976 40.0998 43.1808 39.9508 43.3038 39.7986L47.4485 34.6553V35.0624H43.6184C43.4159 35.0624 43.2604 35.0161 43.1519 34.9234C43.0506 34.8307 43 34.6983 43 34.5262C43 34.3541 43.0506 34.2251 43.1519 34.139C43.2604 34.0463 43.4159 34 43.6184 34H48.1103C48.2911 34 48.4358 34.0331 48.5443 34.0993C48.66 34.1655 48.736 34.2548 48.7722 34.3674C48.8156 34.4799 48.8156 34.609 48.7722 34.7546C48.736 34.9002 48.6564 35.0492 48.5335 35.2014L44.3888 40.3348V39.9376H48.3816C48.5841 39.9376 48.736 39.9839 48.8373 40.0766C48.9458 40.1626 49 40.2917 49 40.4638C49 40.6359 48.9458 40.7683 48.8373 40.861C48.736 40.9537 48.5841 41 48.3816 41H43.7269Z" fill="#5D6A86"/>
<path d="M55.0904 29C54.8192 29 54.5967 28.9527 54.4231 28.8582C54.2604 28.7636 54.1465 28.6359 54.0814 28.4752C54.0271 28.305 54.0271 28.1206 54.0814 27.922C54.1465 27.7139 54.2712 27.5012 54.4557 27.2837L60.6727 19.9362V20.5177H54.9277C54.6239 20.5177 54.3906 20.4515 54.2278 20.3191C54.0759 20.1868 54 19.9976 54 19.7518C54 19.5059 54.0759 19.3215 54.2278 19.1986C54.3906 19.0662 54.6239 19 54.9277 19H61.6655C61.9367 19 62.1537 19.0473 62.3165 19.1418C62.4901 19.2364 62.604 19.3641 62.6582 19.5248C62.7233 19.6856 62.7233 19.87 62.6582 20.078C62.604 20.2861 62.4846 20.4988 62.3002 20.7163L56.0832 28.0496V27.4823H62.0723C62.3761 27.4823 62.604 27.5485 62.7559 27.6809C62.9186 27.8038 63 27.9882 63 28.234C63 28.4799 62.9186 28.669 62.7559 28.8014C62.604 28.9338 62.3761 29 62.0723 29H55.0904Z" fill="#5D6A86"/>
<path d="M42.3327 13C42.0012 13 41.7294 12.9385 41.5172 12.8156C41.3183 12.6927 41.179 12.5267 41.0995 12.3177C41.0332 12.0965 41.0332 11.8567 41.0995 11.5986C41.179 11.3281 41.3315 11.0515 41.557 10.7688L49.1555 1.21702V1.97305H42.1338C41.7625 1.97305 41.4774 1.887 41.2785 1.71489C41.0928 1.54279 41 1.29693 41 0.977305C41 0.657683 41.0928 0.417967 41.2785 0.258156C41.4774 0.086052 41.7625 0 42.1338 0H50.3689C50.7004 0 50.9656 0.0614657 51.1646 0.184397C51.3767 0.307328 51.516 0.473286 51.5823 0.682269C51.6618 0.891253 51.6618 1.13097 51.5823 1.40142C51.516 1.67187 51.3701 1.94846 51.1447 2.23121L43.5461 11.7645V11.0269H50.8662C51.2375 11.0269 51.516 11.113 51.7016 11.2851C51.9005 11.4449 52 11.6846 52 12.0043C52 12.3239 51.9005 12.5697 51.7016 12.7418C51.516 12.9139 51.2375 13 50.8662 13H42.3327Z" fill="#5D6A86"/>
<path d="M11.8984 87.2939C11.657 88.5578 12.0673 91.3291 15.6406 92.3036C19.2138 93.2782 21.0704 91.1251 21.552 89.9268" stroke="#5D6A86" stroke-linecap="round"/>
<path d="M26.7539 91.3447C26.5124 92.6086 26.9228 95.3799 30.496 96.3544C34.0693 97.3289 35.9259 95.1759 36.4075 93.9775" stroke="#5D6A86" stroke-linecap="round"/>
<circle cx="20.7692" cy="102.974" r="1.47727" transform="rotate(12.9378 20.7692 102.974)" fill="#5D6A86"/>
</svg>
